<svg width="16" height="5" viewBox="0 0 16 5" fill="none" xmlns="http://www.w3.org/2000/svg">
<path d="M0.212891 2.21484C0.212891 1.70508 0.374023 1.28613 0.696289 0.958008C1.02441 0.629883 1.45801 0.46582 1.99707 0.46582C2.53027 0.46582 2.96387 0.626953 3.29785 0.949219C3.63184 1.26562 3.79883 1.69629 3.79883 2.24121V2.56641C3.79883 3.07617 3.6377 3.49219 3.31543 3.81445C2.99316 4.13672 2.55664 4.29785 2.00586 4.29785C1.46094 4.29785 1.02441 4.13672 0.696289 3.81445C0.374023 3.48633 0.212891 3.06445 0.212891 2.54883V2.21484ZM6.27734 2.21484C6.27734 1.70508 6.43848 1.28613 6.76074 0.958008C7.08887 0.629883 7.52246 0.46582 8.06152 0.46582C8.59473 0.46582 9.02832 0.626953 9.3623 0.949219C9.69629 1.26562 9.86328 1.69629 9.86328 2.24121V2.56641C9.86328 3.07617 9.70215 3.49219 9.37988 3.81445C9.05762 4.13672 8.62109 4.29785 8.07031 4.29785C7.52539 4.29785 7.08887 4.13672 6.76074 3.81445C6.43848 3.48633 6.27734 3.06445 6.27734 2.54883V2.21484ZM12.3418 2.21484C12.3418 1.70508 12.5029 1.28613 12.8252 0.958008C13.1533 0.629883 13.5869 0.46582 14.126 0.46582C14.6592 0.46582 15.0928 0.626953 15.4268 0.949219C15.7607 1.26562 15.9277 1.69629 15.9277 2.24121V2.56641C15.9277 3.07617 15.7666 3.49219 15.4443 3.81445C15.1221 4.13672 14.6855 4.29785 14.1348 4.29785C13.5898 4.29785 13.1533 4.13672 12.8252 3.81445C12.5029 3.48633 12.3418 3.06445 12.3418 2.54883V2.21484Z" fill="black"/>
</svg>
